<?xml version="1.0" encoding="utf-8"?>
<!-- Generator: Adobe Illustrator 27.3.1, SVG Export Plug-In . SVG Version: 6.00 Build 0)  -->
<svg version="1.1" id="Layer_1" xmlns="http://www.w3.org/2000/svg" xmlns:xlink="http://www.w3.org/1999/xlink" x="0px" y="0px"
	 viewBox="0 0 150.72 150.17" style="enable-background:new 0 0 150.72 150.17;" xml:space="preserve">
<style type="text/css">
	.st0{fill:#E6E7E8;stroke:#231F20;stroke-width:2;stroke-miterlimit:10;}
	.st1{fill:#BCBEC0;}
	.st2{fill:none;stroke:#231F20;stroke-width:5;stroke-miterlimit:10;}
	.st3{fill:#F1F2F2;}
	.st4{fill:#EE617B;}
	.st5{fill:#808285;}
	.st6{fill:#FFFFFF;}
	.st7{fill:#00C1DE;}
	.st8{fill:#00B4DE;}
	.st9{fill:#00BEDE;}
</style>
<rect x="3.58" y="16.44" class="st0" width="143.56" height="130.19"/>
<rect x="39.15" y="41.37" class="st1" width="20.64" height="20.64"/>
<rect x="65.82" y="41.37" class="st1" width="20.64" height="20.64"/>
<rect x="12.49" y="66.84" class="st1" width="20.64" height="20.64"/>
<rect x="39.15" y="66.84" class="st1" width="20.64" height="20.64"/>
<rect x="65.82" y="66.84" class="st1" width="20.64" height="20.64"/>
<rect x="92.49" y="66.84" class="st1" width="20.64" height="20.64"/>
<rect x="12.49" y="41.37" class="st1" width="20.64" height="20.64"/>
<rect x="39.15" y="92.3" class="st1" width="20.64" height="20.64"/>
<rect x="65.82" y="92.3" class="st1" width="20.64" height="20.64"/>
<rect x="92.49" y="92.3" class="st1" width="20.64" height="20.64"/>
<rect x="12.49" y="92.3" class="st1" width="20.64" height="20.64"/>
<rect x="12.49" y="117.65" class="st1" width="20.64" height="20.64"/>
<rect x="39.57" y="117.76" class="st1" width="20.64" height="20.64"/>
<rect x="65.82" y="117.65" class="st1" width="20.64" height="20.64"/>
<rect x="92.49" y="117.65" class="st1" width="20.64" height="20.64"/>
<rect x="92.49" y="41.37" class="st1" width="20.64" height="20.64"/>
<path class="st2" d="M22.91,16.9c0-18.88,15.51-16.73,15.51,0"/>
<path class="st2" d="M112.96,16.9c0-18.88,15.51-16.73,15.51,0"/>
<rect x="38.58" y="40.63" class="st3" width="20.64" height="20.64"/>
<rect x="65.24" y="40.63" class="st3" width="20.64" height="20.64"/>
<rect x="11.91" y="66.09" class="st3" width="20.64" height="20.64"/>
<rect x="38.58" y="66.09" class="st3" width="20.64" height="20.64"/>
<rect x="65.24" y="66.09" class="st3" width="20.64" height="20.64"/>
<rect x="91.91" y="66.09" class="st3" width="20.64" height="20.64"/>
<rect x="11.91" y="40.63" class="st3" width="20.64" height="20.64"/>
<rect x="38.58" y="91.55" class="st3" width="20.64" height="20.64"/>
<rect x="65.24" y="91.55" class="st3" width="20.64" height="20.64"/>
<rect x="91.91" y="91.55" class="st3" width="20.64" height="20.64"/>
<rect x="11.91" y="91.55" class="st3" width="20.64" height="20.64"/>
<rect x="11.91" y="116.91" class="st3" width="20.64" height="20.64"/>
<rect x="38.99" y="117.02" class="st3" width="20.64" height="20.64"/>
<rect x="65.24" y="116.91" class="st3" width="20.64" height="20.64"/>
<rect x="91.91" y="116.91" class="st3" width="20.64" height="20.64"/>
<rect x="118.09" y="40.63" class="st4" width="20.64" height="20.64"/>
<rect x="118.09" y="66.09" class="st4" width="20.64" height="20.64"/>
<rect x="118.09" y="91.55" class="st4" width="20.64" height="20.64"/>
<rect x="118.09" y="116.91" class="st4" width="20.64" height="20.64"/>
<rect x="4.57" y="17.45" class="st5" width="141.58" height="16"/>
<g>
	<path class="st6" d="M11.82,29.68v-8.59h5.89v1.45h-4.15v2.03h3.59v1.45h-3.59v3.65H11.82z"/>
	<path class="st6" d="M19.18,29.68v-8.52h1.73v7.07h4.31v1.45H19.18z"/>
	<path class="st6" d="M26.47,29.68v-8.59h6.37v1.45H28.2v1.9h4.31v1.45H28.2v2.34H33v1.45H26.47z"/>
	<path class="st6" d="M33.6,29.68l2.94-4.48l-2.66-4.11h2.03l1.72,2.76l1.69-2.76h2.01l-2.67,4.17l2.94,4.42h-2.09l-1.9-2.97
		l-1.91,2.97H33.6z"/>
	<path class="st6" d="M42.42,29.68v-8.59h1.73v8.59H42.42z"/>
	<path class="st6" d="M45.81,21.09h3.43c0.68,0,1.19,0.03,1.52,0.08s0.63,0.17,0.9,0.35s0.48,0.42,0.66,0.72s0.26,0.63,0.26,1
		c0,0.4-0.11,0.77-0.33,1.11s-0.51,0.59-0.88,0.76c0.52,0.15,0.93,0.41,1.21,0.78s0.42,0.8,0.42,1.29c0,0.39-0.09,0.77-0.27,1.14
		s-0.43,0.66-0.74,0.88s-0.7,0.36-1.16,0.41c-0.29,0.03-0.99,0.05-2.09,0.06h-2.92V21.09z M47.55,22.52v1.99h1.14
		c0.68,0,1.1-0.01,1.26-0.03c0.3-0.04,0.53-0.14,0.7-0.31s0.25-0.39,0.25-0.67c0-0.27-0.07-0.48-0.22-0.65s-0.36-0.27-0.65-0.3
		c-0.17-0.02-0.67-0.03-1.48-0.03H47.55z M47.55,25.94v2.3h1.61c0.62,0,1.02-0.02,1.19-0.05c0.26-0.05,0.47-0.16,0.63-0.34
		s0.24-0.42,0.24-0.73c0-0.26-0.06-0.48-0.19-0.66s-0.31-0.31-0.54-0.39s-0.75-0.12-1.54-0.12H47.55z"/>
	<path class="st6" d="M54.52,29.68v-8.52h1.73v7.07h4.31v1.45H54.52z"/>
	<path class="st6" d="M61.8,29.68v-8.59h6.37v1.45h-4.63v1.9h4.31v1.45h-4.31v2.34h4.8v1.45H61.8z"/>
</g>
<rect x="91.91" y="40.63" class="st3" width="20.64" height="20.64"/>
<rect x="11.91" y="40.63" class="st7" width="7.04" height="20.64"/>
<rect x="38.58" y="40.63" class="st7" width="12.63" height="20.64"/>
<rect x="73.25" y="40.63" class="st8" width="12.63" height="20.64"/>
<rect x="19.92" y="66.09" class="st8" width="12.63" height="20.64"/>
<rect x="46.59" y="66.09" class="st8" width="12.63" height="20.64"/>
<rect x="72.24" y="116.91" class="st8" width="12.63" height="20.64"/>
<rect x="91.91" y="116.91" class="st8" width="12.63" height="20.64"/>
<rect x="78.1" y="91.55" class="st8" width="7.79" height="20.64"/>
<rect x="65.24" y="91.5" class="st8" width="7.79" height="20.64"/>
<rect x="40.27" y="91.55" class="st8" width="12.63" height="20.64"/>
<rect x="65.24" y="66.09" class="st9" width="16.75" height="20.64"/>
<rect x="16.59" y="91.55" class="st7" width="12.63" height="20.64"/>
<rect x="101.52" y="91.5" class="st7" width="9.58" height="20.64"/>
<rect x="48.11" y="117.02" class="st7" width="9.58" height="20.64"/>
<rect x="14.16" y="116.91" class="st8" width="13.27" height="20.64"/>
<rect x="96.37" y="40.63" class="st7" width="11.21" height="20.64"/>
<rect x="91.91" y="66.09" class="st8" width="11.21" height="20.64"/>
<rect x="27.43" y="40.63" class="st7" width="4.86" height="20.64"/>
<rect x="38.99" y="117.02" class="st7" width="3.55" height="20.64"/>
</svg>
