<?xml version="1.0" encoding="utf-8"?>
<!-- Generator: Adobe Illustrator 27.3.1, SVG Export Plug-In . SVG Version: 6.00 Build 0)  -->
<svg version="1.1" id="Layer_1" xmlns="http://www.w3.org/2000/svg" xmlns:xlink="http://www.w3.org/1999/xlink" x="0px" y="0px"
	 viewBox="0 0 150.72 150.17" style="enable-background:new 0 0 150.72 150.17;" xml:space="preserve">
<style type="text/css">
	.st0{fill:#E6E7E8;stroke:#231F20;stroke-width:2;stroke-miterlimit:10;}
	.st1{fill:none;stroke:#231F20;stroke-width:5;stroke-miterlimit:10;}
	.st2{fill:#808285;}
	.st3{fill:#FFFFFF;}
	.st4{fill:#47BF6A;}
</style>
<rect x="3.58" y="16.44" class="st0" width="143.56" height="130.19"/>
<path class="st1" d="M22.91,16.9c0-18.88,15.51-16.73,15.51,0"/>
<path class="st1" d="M112.96,16.9c0-18.88,15.51-16.73,15.51,0"/>
<rect x="4.57" y="17.45" class="st2" width="141.58" height="16"/>
<g>
	<path class="st3" d="M11.48,27.4l1.69-0.16c0.1,0.57,0.31,0.98,0.62,1.25s0.73,0.4,1.26,0.4c0.56,0,0.98-0.12,1.26-0.35
		s0.42-0.51,0.42-0.83c0-0.2-0.06-0.38-0.18-0.52s-0.33-0.27-0.62-0.37c-0.2-0.07-0.67-0.2-1.39-0.38
		c-0.93-0.23-1.58-0.51-1.96-0.85c-0.53-0.47-0.79-1.05-0.79-1.73c0-0.44,0.12-0.85,0.37-1.23s0.61-0.67,1.07-0.87
		s1.03-0.3,1.69-0.3c1.08,0,1.89,0.24,2.43,0.71s0.83,1.1,0.86,1.89l-1.73,0.08c-0.07-0.44-0.23-0.76-0.48-0.95s-0.61-0.29-1.1-0.29
		c-0.5,0-0.9,0.1-1.18,0.31c-0.18,0.13-0.28,0.31-0.28,0.53c0,0.2,0.09,0.38,0.26,0.52c0.22,0.18,0.75,0.38,1.59,0.57
		s1.47,0.41,1.87,0.62s0.72,0.5,0.95,0.87s0.34,0.83,0.34,1.37c0,0.49-0.14,0.95-0.41,1.38s-0.66,0.75-1.16,0.96
		s-1.12,0.31-1.87,0.31c-1.09,0-1.92-0.25-2.5-0.75S11.59,28.36,11.48,27.4z"/>
	<path class="st3" d="M19.91,21.6h1.73v4.65c0,0.74,0.02,1.22,0.06,1.44c0.07,0.35,0.25,0.63,0.53,0.85s0.66,0.32,1.15,0.32
		c0.49,0,0.86-0.1,1.11-0.3s0.4-0.45,0.45-0.74s0.08-0.78,0.08-1.46V21.6h1.73v4.51c0,1.03-0.05,1.76-0.14,2.19
		s-0.27,0.79-0.52,1.08s-0.59,0.53-1.01,0.7s-0.97,0.26-1.65,0.26c-0.82,0-1.44-0.09-1.87-0.28s-0.76-0.44-1-0.74
		s-0.41-0.62-0.49-0.95c-0.11-0.49-0.17-1.22-0.17-2.18V21.6z"/>
	<path class="st3" d="M28.56,30.19V21.6h2.6l1.56,5.86l1.54-5.86h2.6v8.59h-1.61v-6.76l-1.71,6.76h-1.67l-1.7-6.76v6.76H28.56z"/>
</g>
<rect x="12.07" y="40.63" class="st4" width="126.83" height="96.92"/>
<g>
	<path class="st3" d="M40.76,114.94h-10v-37.7c-3.66,3.42-7.96,5.95-12.92,7.58v-9.08c2.61-0.85,5.45-2.47,8.51-4.86
		c3.06-2.38,5.16-5.17,6.3-8.35h8.12V114.94z"/>
	<path class="st3" d="M89.61,75.52l-9.68,1.07c-0.24-1.99-0.85-3.46-1.85-4.41c-1-0.95-2.29-1.42-3.88-1.42
		c-2.11,0-3.9,0.95-5.36,2.85c-1.46,1.9-2.38,5.85-2.76,11.86c2.49-2.94,5.59-4.42,9.29-4.42c4.18,0,7.75,1.59,10.73,4.77
		s4.47,7.29,4.47,12.32c0,5.34-1.57,9.62-4.7,12.85c-3.13,3.23-7.16,4.84-12.07,4.84c-5.27,0-9.6-2.05-13-6.14
		c-3.39-4.09-5.09-10.81-5.09-20.13c0-9.57,1.77-16.46,5.3-20.69c3.54-4.22,8.13-6.34,13.78-6.34c3.96,0,7.25,1.11,9.84,3.33
		C87.24,68.08,88.9,71.3,89.61,75.52z M66.93,97.35c0,3.25,0.75,5.76,2.24,7.53c1.5,1.77,3.2,2.65,5.13,2.65
		c1.85,0,3.39-0.72,4.63-2.17c1.23-1.45,1.85-3.82,1.85-7.12c0-3.39-0.67-5.88-1.99-7.46c-1.33-1.58-2.99-2.37-4.98-2.37
		c-1.92,0-3.55,0.75-4.88,2.26C67.6,92.18,66.93,94.4,66.93,97.35z"/>
	<path class="st3" d="M113.18,62.53c5.05,0,9.01,1.8,11.86,5.41c3.39,4.27,5.09,11.36,5.09,21.25c0,9.87-1.71,16.97-5.13,21.29
		c-2.83,3.56-6.76,5.34-11.82,5.34c-5.08,0-9.17-1.95-12.28-5.86c-3.11-3.9-4.66-10.86-4.66-20.88c0-9.83,1.71-16.9,5.13-21.22
		C104.18,64.31,108.12,62.53,113.18,62.53z M113.18,70.82c-1.21,0-2.29,0.39-3.24,1.16c-0.95,0.77-1.69,2.15-2.21,4.15
		c-0.69,2.59-1.03,6.94-1.03,13.07c0,6.12,0.31,10.33,0.93,12.62c0.62,2.29,1.39,3.82,2.33,4.57c0.94,0.76,2.01,1.14,3.22,1.14
		c1.21,0,2.29-0.39,3.24-1.16c0.95-0.77,1.68-2.15,2.21-4.15c0.69-2.56,1.03-6.91,1.03-13.03c0-6.12-0.31-10.33-0.93-12.62
		c-0.62-2.29-1.39-3.82-2.33-4.59C115.46,71.21,114.39,70.82,113.18,70.82z"/>
</g>
</svg>
