<?xml version="1.0" encoding="utf-8"?>
<!-- Generator: Adobe Illustrator 27.3.1, SVG Export Plug-In . SVG Version: 6.00 Build 0)  -->
<svg version="1.1" id="Layer_1" xmlns="http://www.w3.org/2000/svg" xmlns:xlink="http://www.w3.org/1999/xlink" x="0px" y="0px"
	 viewBox="0 0 150.72 150.17" style="enable-background:new 0 0 150.72 150.17;" xml:space="preserve">
<style type="text/css">
	.st0{fill:#E6E7E8;stroke:#231F20;stroke-width:2;stroke-miterlimit:10;}
	.st1{fill:none;stroke:#231F20;stroke-width:5;stroke-miterlimit:10;}
	.st2{fill:#00B4DE;}
	.st3{fill:#EE617B;}
	.st4{fill:#808285;}
	.st5{fill:#FFFFFF;}
</style>
<rect x="3.58" y="16.44" class="st0" width="143.56" height="130.19"/>
<path class="st1" d="M22.91,16.9c0-18.88,15.51-16.73,15.51,0"/>
<path class="st1" d="M112.96,16.9c0-18.88,15.51-16.73,15.51,0"/>
<rect x="11.91" y="40.63" class="st2" width="20.64" height="20.64"/>
<rect x="38.58" y="40.63" class="st3" width="20.64" height="20.64"/>
<rect x="65.24" y="40.63" class="st2" width="20.64" height="20.64"/>
<rect x="91.91" y="40.63" class="st3" width="20.64" height="20.64"/>
<rect x="11.91" y="66.09" class="st3" width="20.64" height="20.64"/>
<rect x="38.58" y="66.09" class="st2" width="20.64" height="20.64"/>
<rect x="65.24" y="66.09" class="st3" width="20.64" height="20.64"/>
<rect x="91.91" y="66.09" class="st2" width="20.64" height="20.64"/>
<rect x="11.91" y="91.55" class="st2" width="20.64" height="20.64"/>
<rect x="38.58" y="91.55" class="st3" width="20.64" height="20.64"/>
<rect x="65.24" y="91.55" class="st2" width="20.64" height="20.64"/>
<rect x="91.91" y="91.55" class="st3" width="20.64" height="20.64"/>
<rect x="11.91" y="116.91" class="st3" width="20.64" height="20.64"/>
<rect x="38.58" y="116.91" class="st2" width="20.64" height="20.64"/>
<rect x="65.24" y="116.91" class="st3" width="20.64" height="20.64"/>
<rect x="91.91" y="116.91" class="st2" width="20.64" height="20.64"/>
<rect x="118.09" y="40.63" class="st2" width="20.64" height="20.64"/>
<rect x="118.09" y="66.09" class="st3" width="20.64" height="20.64"/>
<rect x="118.09" y="91.55" class="st2" width="20.64" height="20.64"/>
<rect x="118.09" y="116.91" class="st3" width="20.64" height="20.64"/>
<rect x="4.57" y="17.45" class="st4" width="141.58" height="16"/>
<g>
	<path class="st5" d="M11.56,26.97l1.69-0.16c0.1,0.57,0.31,0.98,0.62,1.25s0.73,0.4,1.26,0.4c0.56,0,0.98-0.12,1.26-0.35
		s0.42-0.51,0.42-0.83c0-0.2-0.06-0.38-0.18-0.52s-0.33-0.27-0.62-0.37c-0.2-0.07-0.67-0.2-1.39-0.38
		c-0.93-0.23-1.58-0.51-1.96-0.85c-0.53-0.47-0.79-1.05-0.79-1.73c0-0.44,0.12-0.85,0.37-1.23s0.61-0.67,1.07-0.87
		s1.03-0.3,1.69-0.3c1.08,0,1.89,0.24,2.43,0.71s0.83,1.1,0.86,1.89l-1.73,0.08c-0.07-0.44-0.23-0.76-0.48-0.95s-0.61-0.29-1.1-0.29
		c-0.5,0-0.9,0.1-1.18,0.31c-0.18,0.13-0.28,0.31-0.28,0.53c0,0.2,0.09,0.38,0.26,0.52c0.22,0.18,0.75,0.38,1.59,0.57
		s1.47,0.41,1.87,0.62s0.72,0.5,0.95,0.87s0.34,0.83,0.34,1.37c0,0.49-0.14,0.95-0.41,1.38s-0.66,0.75-1.16,0.96
		s-1.12,0.31-1.87,0.31c-1.09,0-1.92-0.25-2.5-0.75S11.67,27.93,11.56,26.97z"/>
	<path class="st5" d="M20.01,29.77v-8.59h1.73v3.38h3.4v-3.38h1.73v8.59h-1.73v-3.76h-3.4v3.76H20.01z"/>
	<path class="st5" d="M28.62,29.77v-8.59h1.73v8.59H28.62z"/>
	<path class="st5" d="M32.01,29.77v-8.59h5.89v1.45h-4.15v2.03h3.59v1.45h-3.59v3.65H32.01z"/>
	<path class="st5" d="M41.27,29.77v-7.14h-2.55v-1.45h6.83v1.45H43v7.14H41.27z"/>
</g>
</svg>
