<?xml version="1.0" encoding="UTF-8"?>
<svg id="Layer_1" data-name="Layer 1" xmlns="http://www.w3.org/2000/svg" viewBox="0 0 145.56 146.6">
  <defs>
    <style>
      .cls-1 {
        fill: none;
        stroke-width: 5px;
      }

      .cls-1, .cls-2 {
        stroke: #231f20;
        stroke-miterlimit: 10;
      }

      .cls-2 {
        fill: #e6e7e8;
        stroke-width: 2px;
      }

      .cls-3 {
        fill: #808285;
      }

      .cls-4 {
        fill: #d1d3d4;
      }
    </style>
  </defs>
  <rect class="cls-2" x="1" y="15.41" width="143.56" height="130.19"/>
  <path class="cls-1" d="m20.33,15.87c0-18.88,15.51-16.73,15.51,0"/>
  <path class="cls-1" d="m110.38,15.87c0-18.88,15.51-16.73,15.51,0"/>
  <rect class="cls-4" x="9.33" y="39.6" width="20.64" height="20.64"/>
  <rect class="cls-4" x="36" y="39.6" width="20.64" height="20.64"/>
  <rect class="cls-4" x="62.66" y="39.6" width="20.64" height="20.64"/>
  <rect class="cls-4" x="89.33" y="39.6" width="20.64" height="20.64"/>
  <rect class="cls-4" x="9.33" y="65.06" width="20.64" height="20.64"/>
  <rect class="cls-4" x="36" y="65.06" width="20.64" height="20.64"/>
  <rect class="cls-4" x="62.66" y="65.06" width="20.64" height="20.64"/>
  <rect class="cls-4" x="89.33" y="65.06" width="20.64" height="20.64"/>
  <rect class="cls-4" x="9.33" y="90.52" width="20.64" height="20.64"/>
  <rect class="cls-4" x="36" y="90.52" width="20.64" height="20.64"/>
  <rect class="cls-4" x="62.66" y="90.52" width="20.64" height="20.64"/>
  <rect class="cls-4" x="89.33" y="90.52" width="20.64" height="20.64"/>
  <rect class="cls-4" x="9.33" y="115.88" width="20.64" height="20.64"/>
  <rect class="cls-4" x="36" y="115.88" width="20.64" height="20.64"/>
  <rect class="cls-4" x="62.66" y="115.88" width="20.64" height="20.64"/>
  <rect class="cls-4" x="89.33" y="115.88" width="20.64" height="20.64"/>
  <rect class="cls-4" x="115.51" y="39.6" width="20.64" height="20.64"/>
  <rect class="cls-4" x="115.51" y="65.06" width="20.64" height="20.64"/>
  <rect class="cls-4" x="115.51" y="90.52" width="20.64" height="20.64"/>
  <rect class="cls-4" x="115.51" y="115.88" width="20.64" height="20.64"/>
  <rect class="cls-3" x="1.99" y="16.42" width="141.58" height="16"/>
</svg>