<?xml version="1.0" encoding="UTF-8"?>
<svg id="Layer_1" data-name="Layer 1" xmlns="http://www.w3.org/2000/svg" viewBox="0 0 145.56 146.6">
  <defs>
    <style>
      .cls-1 {
        fill: #fff;
      }

      .cls-2 {
        fill: #00b4de;
      }

      .cls-3 {
        fill: none;
        stroke-width: 5px;
      }

      .cls-3, .cls-4 {
        stroke: #231f20;
        stroke-miterlimit: 10;
      }

      .cls-5 {
        fill: #ee617b;
      }

      .cls-4 {
        fill: #e6e7e8;
        stroke-width: 2px;
      }

      .cls-6 {
        fill: #808285;
      }
    </style>
  </defs>
  <rect class="cls-4" x="1" y="15.41" width="143.56" height="130.19"/>
  <path class="cls-3" d="m20.33,15.87c0-18.88,15.51-16.73,15.51,0"/>
  <path class="cls-3" d="m110.38,15.87c0-18.88,15.51-16.73,15.51,0"/>
  <rect class="cls-2" x="9.33" y="39.6" width="20.64" height="20.64"/>
  <rect class="cls-2" x="36" y="39.6" width="20.64" height="20.64"/>
  <rect class="cls-2" x="62.66" y="39.6" width="20.64" height="20.64"/>
  <rect class="cls-2" x="89.33" y="39.6" width="20.64" height="20.64"/>
  <rect class="cls-2" x="9.33" y="65.06" width="20.64" height="20.64"/>
  <rect class="cls-2" x="36" y="65.06" width="20.64" height="20.64"/>
  <rect class="cls-2" x="62.66" y="65.06" width="20.64" height="20.64"/>
  <rect class="cls-2" x="89.33" y="65.06" width="20.64" height="20.64"/>
  <rect class="cls-2" x="9.33" y="90.52" width="20.64" height="20.64"/>
  <rect class="cls-2" x="36" y="90.52" width="20.64" height="20.64"/>
  <rect class="cls-2" x="62.66" y="90.52" width="20.64" height="20.64"/>
  <rect class="cls-2" x="89.33" y="90.52" width="20.64" height="20.64"/>
  <rect class="cls-2" x="9.33" y="115.88" width="20.64" height="20.64"/>
  <rect class="cls-2" x="36" y="115.88" width="20.64" height="20.64"/>
  <rect class="cls-2" x="62.66" y="115.88" width="20.64" height="20.64"/>
  <rect class="cls-2" x="89.33" y="115.88" width="20.64" height="20.64"/>
  <rect class="cls-5" x="115.51" y="39.6" width="20.64" height="20.64"/>
  <rect class="cls-5" x="115.51" y="65.06" width="20.64" height="20.64"/>
  <rect class="cls-5" x="115.51" y="90.52" width="20.64" height="20.64"/>
  <rect class="cls-5" x="115.51" y="115.88" width="20.64" height="20.64"/>
  <rect class="cls-6" x="1.99" y="16.42" width="141.58" height="16"/>
  <g>
    <path class="cls-1" d="m9.04,25.94l1.69-.16c.1.57.31.98.62,1.25s.73.4,1.26.4c.56,0,.98-.12,1.26-.35s.42-.51.42-.83c0-.2-.06-.38-.18-.52s-.33-.27-.62-.37c-.2-.07-.67-.2-1.39-.38-.93-.23-1.58-.51-1.96-.85-.53-.47-.79-1.05-.79-1.73,0-.44.12-.85.37-1.23s.61-.67,1.07-.87,1.03-.3,1.69-.3c1.08,0,1.89.24,2.43.71s.83,1.1.86,1.89l-1.73.08c-.07-.44-.23-.76-.48-.95s-.61-.29-1.1-.29-.9.1-1.18.31c-.18.13-.28.31-.28.53,0,.2.09.38.26.52.22.18.75.38,1.59.57s1.47.41,1.87.62.72.5.95.87.34.83.34,1.37c0,.49-.14.95-.41,1.38s-.66.75-1.16.96-1.12.31-1.87.31c-1.09,0-1.92-.25-2.5-.75s-.93-1.23-1.04-2.19Z"/>
    <path class="cls-1" d="m19.42,28.74v-7.14h-2.55v-1.45h6.83v1.45h-2.54v7.14h-1.73Z"/>
    <path class="cls-1" d="m31.67,28.74h-1.89l-.75-1.95h-3.43l-.71,1.95h-1.84l3.35-8.59h1.83l3.44,8.59Zm-3.19-3.4l-1.18-3.19-1.16,3.19h2.34Z"/>
    <path class="cls-1" d="m32.61,28.74v-8.59h1.69l3.52,5.74v-5.74h1.61v8.59h-1.74l-3.46-5.6v5.6h-1.61Z"/>
    <path class="cls-1" d="m41.25,20.15h3.17c.71,0,1.26.05,1.63.16.5.15.94.41,1.29.79s.63.84.82,1.39.28,1.23.28,2.03c0,.71-.09,1.32-.26,1.83-.21.62-.52,1.13-.92,1.52-.3.29-.71.52-1.22.69-.38.12-.89.18-1.54.18h-3.26v-8.59Zm1.73,1.45v5.69h1.29c.48,0,.83-.03,1.05-.08.28-.07.51-.19.7-.36s.34-.44.45-.83.18-.91.18-1.57-.06-1.17-.18-1.53-.28-.63-.49-.83-.48-.33-.8-.4c-.24-.05-.72-.08-1.42-.08h-.78Z"/>
    <path class="cls-1" d="m57.67,28.74h-1.89l-.75-1.95h-3.43l-.71,1.95h-1.84l3.35-8.59h1.83l3.44,8.59Zm-3.19-3.4l-1.18-3.19-1.16,3.19h2.34Z"/>
    <path class="cls-1" d="m58.59,28.74v-8.59h3.65c.92,0,1.58.08,2,.23s.75.43,1,.82.38.85.38,1.35c0,.64-.19,1.18-.57,1.6s-.95.68-1.7.79c.38.22.68.46.93.72s.57.73.99,1.39l1.05,1.68h-2.07l-1.25-1.87c-.45-.67-.75-1.09-.91-1.26s-.34-.29-.52-.36-.47-.1-.87-.1h-.35v3.59h-1.73Zm1.73-4.96h1.28c.83,0,1.35-.04,1.56-.11s.37-.19.49-.36.18-.39.18-.64c0-.29-.08-.52-.23-.7s-.37-.29-.65-.34c-.14-.02-.56-.03-1.27-.03h-1.35v2.18Z"/>
    <path class="cls-1" d="m67.25,20.15h3.17c.71,0,1.26.05,1.63.16.5.15.94.41,1.29.79s.63.84.82,1.39.28,1.23.28,2.03c0,.71-.09,1.32-.26,1.83-.21.62-.52,1.13-.92,1.52-.3.29-.71.52-1.22.69-.38.12-.89.18-1.54.18h-3.26v-8.59Zm1.73,1.45v5.69h1.29c.48,0,.83-.03,1.05-.08.28-.07.51-.19.7-.36s.34-.44.45-.83.18-.91.18-1.57-.06-1.17-.18-1.53-.28-.63-.49-.83-.48-.33-.8-.4c-.24-.05-.72-.08-1.42-.08h-.78Z"/>
  </g>
</svg>